<?xml version="1.0" encoding="utf-8"?>
<!-- Generator: Adobe Illustrator 16.0.0, SVG Export Plug-In . SVG Version: 6.00 Build 0)  -->
<!DOCTYPE svg PUBLIC "-//W3C//DTD SVG 1.1//EN" "http://www.w3.org/Graphics/SVG/1.1/DTD/svg11.dtd">
<svg version="1.1" id="Layer_1" xmlns="http://www.w3.org/2000/svg" xmlns:xlink="http://www.w3.org/1999/xlink" x="0px" y="0px"
	 width="80px" height="84px" viewBox="-4 0 80 84" enable-background="new -4 0 80 84" xml:space="preserve">
<linearGradient id="SVGID_1_" gradientUnits="userSpaceOnUse" x1="2288.4766" y1="2203.9307" x2="1784.7509" y2="2203.9307" gradientTransform="matrix(0.15 0 0 0.15 -269.5749 -288.1916)">
	<stop  offset="0" style="stop-color:#2E88DD"/>
	<stop  offset="1" style="stop-color:#146FC4"/>
</linearGradient>
<path fill="url(#SVGID_1_)" d="M36,80.847c21.234,0,38.439-17.205,38.439-38.457S57.234,3.949,36,3.949
	c-21.235,0-38.44,17.221-38.44,38.456C-2.423,63.625,14.781,80.813,36,80.847z M36,6.522c19.827,0,35.884,16.074,35.884,35.883
	c0,19.811-16.057,35.884-35.884,35.884c-19.826,0-35.884-16.058-35.884-35.884C0.132,22.596,16.19,6.538,36,6.522z"/>
<linearGradient id="SVGID_2_" gradientUnits="userSpaceOnUse" x1="2288.4824" y1="2203.9834" x2="1784.749" y2="2203.9834" gradientTransform="matrix(0.15 0 0 0.15 -269.5749 -288.1916)">
	<stop  offset="0" style="stop-color:#2E88DD"/>
	<stop  offset="1" style="stop-color:#146FC4"/>
</linearGradient>
<path fill="url(#SVGID_2_)" d="M36,74.439c17.696,0,32.033-14.337,32.033-32.034c0-17.696-14.337-32.033-32.033-32.033
	S3.966,24.709,3.966,42.405C3.983,60.103,18.304,74.423,36,74.439z M7.506,49.991l7.898-2.097c3.08-0.819,6.374-0.164,8.897,1.77
	c2.523,1.935,4.014,4.949,4.014,8.128v13.059C18.156,68.082,10.242,60.135,7.506,49.991z M30.872,71.425V57.792
	c0-3.981-1.852-7.734-5.014-10.16c-3.146-2.424-7.275-3.243-11.109-2.228l-7.783,2.064c-0.574-3.228-0.606-6.521-0.082-9.749
	c6.079-2.196,17.352-5.588,29.1-5.588c11.749,0,23.022,3.375,29.101,5.588c0.524,3.228,0.492,6.537-0.082,9.749l-7.75-2.064
	c-3.851-1.016-7.947-0.213-11.109,2.228c-3.146,2.426-5.014,6.179-5.014,10.16v13.633C37.736,72.031,34.263,72.031,30.872,71.425z
	 M43.685,70.851V57.792c0-3.179,1.491-6.193,4.015-8.128c2.522-1.934,5.817-2.604,8.897-1.77l7.897,2.097
	C61.758,60.135,53.844,68.082,43.685,70.851z M36,12.912c13.338,0.017,25.005,8.979,28.479,21.875
	C55.335,31.542,45.7,29.789,36,29.576c-9.7,0.213-19.318,1.966-28.478,5.21C10.996,21.908,22.663,12.945,36,12.912z"/>
<linearGradient id="SVGID_3_" gradientUnits="userSpaceOnUse" x1="2288.4854" y1="2203.9814" x2="1784.7466" y2="2203.9814" gradientTransform="matrix(0.15 0 0 0.15 -269.5749 -288.1916)">
	<stop  offset="0" style="stop-color:#2E88DD"/>
	<stop  offset="1" style="stop-color:#146FC4"/>
</linearGradient>
<path fill="url(#SVGID_3_)" d="M44.963,42.405c0-4.948-4.016-8.962-8.963-8.962c-4.948,0-8.963,4.014-8.963,8.962
	c0,4.949,4.015,8.963,8.963,8.963C40.947,51.368,44.963,47.354,44.963,42.405z M29.593,42.405c0-3.539,2.867-6.406,6.407-6.406
	c3.539,0,6.407,2.868,6.407,6.406c0,3.539-2.868,6.406-6.407,6.406C32.46,48.796,29.61,45.944,29.593,42.405z"/>
<linearGradient id="SVGID_4_" gradientUnits="userSpaceOnUse" x1="2288.4775" y1="2203.9814" x2="1784.7554" y2="2203.9814" gradientTransform="matrix(0.15 0 0 0.15 -269.5749 -288.1916)">
	<stop  offset="0" style="stop-color:#2E88DD"/>
	<stop  offset="1" style="stop-color:#146FC4"/>
</linearGradient>
<path fill="url(#SVGID_4_)" d="M39.851,42.405c0-2.113-1.721-3.85-3.851-3.85c-2.13,0-3.851,1.721-3.851,3.85
	c0,2.131,1.72,3.851,3.851,3.851C38.13,46.256,39.851,44.52,39.851,42.405z M34.722,42.405c0-0.705,0.573-1.278,1.278-1.278
	c0.704,0,1.278,0.573,1.278,1.278c0,0.705-0.574,1.278-1.278,1.278C35.295,43.684,34.722,43.11,34.722,42.405z"/>
</svg>
